<svg id="Icon" xmlns="http://www.w3.org/2000/svg" width="400" height="400" viewBox="0 0 400 400">
  <defs>
    <style>
      .cls-1 {
        fill: #ffbf00;
      }

      .cls-2, .cls-3 {
        fill: #262626;
      }

      .cls-3 {
        fill-rule: evenodd;
      }
    </style>
  </defs>
  <rect id="Background" class="cls-1" width="400" height="400"/>
  <g id="Lines">
    <rect id="Line_4" data-name="Line 4" class="cls-2" y="286" width="88" height="30"/>
    <rect id="Line_3" data-name="Line 3" class="cls-2" y="218" width="88" height="30"/>
    <rect id="Line_2" data-name="Line 2" class="cls-2" y="151" width="88" height="30"/>
    <rect id="Line_1" data-name="Line 1" class="cls-2" y="83" width="88" height="30"/>
  </g>
  <path id="JS" class="cls-3" d="M460.125,436.266v-96.2a3.677,3.677,0,0,0-3.8-3.8h-17.8a3.677,3.677,0,0,0-3.8,3.8v94.2c0,8.2-2.8,10.4-6.8,10.4a12.991,12.991,0,0,1-6.2-1.6,6.9,6.9,0,0,0-2.6-.6c-1.8,0-3,1-3,3.2v13c0,4.2,6.6,7.8,16.8,7.8C450.125,466.466,460.125,456.866,460.125,436.266Zm101.2-8.2c0-26.4-15.8-35-36.8-40.6-11.2-3-18-7.2-18-16.2,0-11.2,7.6-15,17-15,13.2,0,19.8,6.4,24.6,9.6,2,1.4,3.4,2.2,5.4,2.2,2.4,0,4.2-1.6,4.2-5v-11.8c0-4.2-1.6-6.6-5.8-9-5.8-3.2-16-8-32.2-8-20.8,0-40.2,11.8-40.2,37,0,23.4,16.8,33.2,34.4,37.8,13,3.4,20.4,7.8,20.4,18.4,0,12.4-9.2,16.2-18.4,16.2-11.8,0-21.8-5.6-28.4-10-2-1.4-3.4-2.2-5.6-2.2-2.6,0-4.4,1.6-4.4,5.2v11.4c0,4.2,1.4,6.6,6,9.6,5.2,3.4,17.6,8.8,35.2,8.8C541.124,466.466,561.324,453.266,561.324,428.066Z" transform="translate(-200 -100)"/>
</svg>
